<svg width="34" height="39" viewBox="0 0 34 39" fill="none" xmlns="http://www.w3.org/2000/svg">
<g clip-path="url(#clip0_24_418)">
<path d="M17.0074 10.9646C12.3225 10.9646 8.54375 14.7721 8.54375 19.4924C8.54375 24.2127 12.3225 28.0201 17.0074 28.0201C21.6922 28.0201 25.471 24.2127 25.471 19.4924C25.471 14.7721 21.6922 10.9646 17.0074 10.9646ZM17.0074 25.0365C13.9799 25.0365 11.5049 22.5502 11.5049 19.4924C11.5049 16.4346 13.9725 13.9482 17.0074 13.9482C20.0422 13.9482 22.5098 16.4346 22.5098 19.4924C22.5098 22.5502 20.0348 25.0365 17.0074 25.0365ZM27.7913 10.6158C27.7913 11.7217 26.9074 12.6049 25.8172 12.6049C24.7196 12.6049 23.8431 11.7143 23.8431 10.6158C23.8431 9.51738 24.727 8.62676 25.8172 8.62676C26.9074 8.62676 27.7913 9.51738 27.7913 10.6158ZM33.3969 12.6346C33.2717 9.97012 32.6676 7.60996 30.7304 5.66543C28.8004 3.7209 26.458 3.1123 23.8136 2.97871C21.0882 2.82285 12.9192 2.82285 10.1938 2.97871C7.5567 3.10488 5.21429 3.71348 3.27701 5.65801C1.33973 7.60254 0.743081 9.9627 0.610492 12.6271C0.455804 15.3732 0.455804 23.6041 0.610492 26.3502C0.735715 29.0146 1.33973 31.3748 3.27701 33.3193C5.21429 35.2639 7.54933 35.8725 10.1938 36.0061C12.9192 36.1619 21.0882 36.1619 23.8136 36.0061C26.458 35.8799 28.8004 35.2713 30.7304 33.3193C32.6603 31.3748 33.2643 29.0146 33.3969 26.3502C33.5516 23.6041 33.5516 15.3807 33.3969 12.6346ZM29.8759 29.2967C29.3013 30.7514 28.1891 31.8721 26.7379 32.4584C24.565 33.3268 19.4087 33.1264 17.0074 33.1264C14.606 33.1264 9.44241 33.3193 7.27679 32.4584C5.83304 31.8795 4.72076 30.7588 4.13884 29.2967C3.27701 27.1072 3.47589 21.9119 3.47589 19.4924C3.47589 17.0729 3.28438 11.8701 4.13884 9.68809C4.71339 8.2334 5.82567 7.1127 7.27679 6.52637C9.44978 5.65801 14.606 5.8584 17.0074 5.8584C19.4087 5.8584 24.5723 5.66543 26.7379 6.52637C28.1817 7.10527 29.294 8.22598 29.8759 9.68809C30.7377 11.8775 30.5388 17.0729 30.5388 19.4924C30.5388 21.9119 30.7377 27.1146 29.8759 29.2967Z" fill="white"/>
</g>
<defs>
<clipPath id="clip0_24_418">
<rect width="33" height="38" fill="white" transform="translate(0.5 0.5)"/>
</clipPath>
</defs>
</svg>
