<svg width="36" height="36" viewBox="0 0 36 36" fill="none" xmlns="http://www.w3.org/2000/svg">
<circle cx="18" cy="18" r="18" fill="white"/>
<g clip-path="url(#clip0_16_240)">
<path fill-rule="evenodd" clip-rule="evenodd" d="M21.2727 15.5451V11.4542H22.0909C22.5409 11.4542 22.9091 11.0861 22.9091 10.6361C22.9091 10.1861 22.5409 9.81787 22.0909 9.81787H13.9091C13.4591 9.81787 13.0909 10.1861 13.0909 10.6361C13.0909 11.0861 13.4591 11.4542 13.9091 11.4542H14.7273V15.5451C14.7273 16.9033 13.6309 17.9997 12.2727 17.9997V19.6361H17.1573V25.3633L17.9755 26.1815L18.7936 25.3633V19.6361H23.7273V17.9997C22.3691 17.9997 21.2727 16.9033 21.2727 15.5451Z" fill="#2F2020"/>
</g>
<defs>
<clipPath id="clip0_16_240">
<rect width="19.6364" height="19.6364" fill="white" transform="translate(8.18182 8.18164)"/>
</clipPath>
</defs>
</svg>
