<svg width="39" height="42" viewBox="0 0 39 42" fill="none" xmlns="http://www.w3.org/2000/svg">
<g filter="url(#filter0_d_24_420)">
<path fill-rule="evenodd" clip-rule="evenodd" d="M29.5984 9.41089C26.9172 6.72974 23.3547 5.25 19.5603 5.25C11.7395 5.25 5.37061 11.6143 5.37061 19.4351C5.36597 21.9353 6.02002 24.3752 7.26318 26.5276L5.25 33.8799L12.7739 31.9038C14.8428 33.0356 17.1807 33.6294 19.5557 33.634H19.5603C27.3811 33.634 33.7454 27.2698 33.75 19.4443C33.75 15.6545 32.2749 12.092 29.5984 9.41089ZM19.5603 31.2358H19.5557C17.4404 31.2358 15.3623 30.6653 13.5532 29.5938L13.1218 29.3386L8.65479 30.5076L9.84692 26.1565L9.5686 25.7112C8.38574 23.8325 7.76416 21.6616 7.76416 19.4351C7.76416 12.9363 13.0569 7.64819 19.5649 7.64819C22.7146 7.64819 25.6741 8.87744 27.9006 11.104C30.1272 13.3352 31.3518 16.2947 31.3518 19.4443C31.3518 25.9478 26.0591 31.2358 19.5603 31.2358ZM26.0266 22.4038C25.6741 22.2275 23.9299 21.3694 23.6052 21.2534C23.2805 21.1328 23.0439 21.0771 22.8074 21.4297C22.5708 21.7869 21.8936 22.5847 21.6848 22.8213C21.4807 23.0532 21.272 23.0857 20.9194 22.9094C20.5623 22.7332 19.4211 22.3574 18.0667 21.1467C17.0137 20.2097 16.2993 19.0454 16.0952 18.6929C15.8865 18.3357 16.072 18.1455 16.2483 17.9692C16.4106 17.8115 16.6055 17.5564 16.7817 17.3477C16.958 17.1436 17.0183 16.9951 17.1389 16.7585C17.2549 16.522 17.1946 16.3132 17.1064 16.137C17.0183 15.9607 16.3086 14.2119 16.0117 13.5022C15.7241 12.811 15.4319 12.9084 15.2139 12.8945C15.0098 12.8853 14.7732 12.8853 14.5366 12.8853C14.3 12.8853 13.915 12.9734 13.5903 13.3306C13.2656 13.6831 12.3518 14.5413 12.3518 16.2854C12.3518 18.0295 13.6228 19.718 13.7991 19.9546C13.9753 20.1865 16.2993 23.7676 19.8572 25.303C20.7014 25.6694 21.3601 25.8875 21.875 26.0498C22.7239 26.3188 23.4985 26.2817 24.1108 26.1936C24.7927 26.0916 26.2075 25.3354 26.5044 24.5051C26.7966 23.6794 26.7966 22.9697 26.7085 22.8213C26.6204 22.6729 26.3838 22.5847 26.0266 22.4038Z" fill="white"/>
</g>
<defs>
<filter id="filter0_d_24_420" x="-3.5" y="0.5" width="46" height="46" filterUnits="userSpaceOnUse" color-interpolation-filters="sRGB">
<feFlood flood-opacity="0" result="BackgroundImageFix"/>
<feColorMatrix in="SourceAlpha" type="matrix" values="0 0 0 0 0 0 0 0 0 0 0 0 0 0 0 0 0 0 127 0" result="hardAlpha"/>
<feOffset dy="4"/>
<feGaussianBlur stdDeviation="2"/>
<feComposite in2="hardAlpha" operator="out"/>
<feColorMatrix type="matrix" values="0 0 0 0 0 0 0 0 0 0 0 0 0 0 0 0 0 0 0.25 0"/>
<feBlend mode="normal" in2="BackgroundImageFix" result="effect1_dropShadow_24_420"/>
<feBlend mode="normal" in="SourceGraphic" in2="effect1_dropShadow_24_420" result="shape"/>
</filter>
</defs>
</svg>
